<mxfile host="app.diagrams.net" modified="2023-10-20T15:22:02.383Z" agent="Mozilla/5.0 (Windows NT 10.0; Win64; x64) AppleWebKit/537.36 (KHTML, like Gecko) Chrome/117.0.0.0 Safari/537.36 OPR/103.0.0.0" etag="drlA5VgcBU8ZUxKwStSI" version="22.0.6" type="device">
  <diagram name="Página-1" id="RZZ3Tb3xcB6A6PAiBNVF">
    <mxGraphModel dx="1164" dy="1827" grid="1" gridSize="10" guides="1" tooltips="1" connect="1" arrows="1" fold="1" page="1" pageScale="1" pageWidth="827" pageHeight="1169" math="0" shadow="0">
      <root>
        <mxCell id="0" />
        <mxCell id="1" parent="0" />
        <mxCell id="X-tyRFL7NIDg11g9ua8T-7" value="" style="rounded=0;whiteSpace=wrap;html=1;" vertex="1" parent="1">
          <mxGeometry x="520" y="-70" width="290" height="590" as="geometry" />
        </mxCell>
        <mxCell id="X-tyRFL7NIDg11g9ua8T-75" style="edgeStyle=orthogonalEdgeStyle;rounded=0;orthogonalLoop=1;jettySize=auto;html=1;entryX=1;entryY=0.5;entryDx=0;entryDy=0;endArrow=none;endFill=0;" edge="1" parent="1" source="X-tyRFL7NIDg11g9ua8T-74" target="X-tyRFL7NIDg11g9ua8T-30">
          <mxGeometry relative="1" as="geometry" />
        </mxCell>
        <mxCell id="X-tyRFL7NIDg11g9ua8T-74" value="" style="rounded=0;whiteSpace=wrap;html=1;" vertex="1" parent="1">
          <mxGeometry x="980" y="10" width="120" height="60" as="geometry" />
        </mxCell>
        <mxCell id="X-tyRFL7NIDg11g9ua8T-59" style="edgeStyle=orthogonalEdgeStyle;rounded=0;orthogonalLoop=1;jettySize=auto;html=1;endArrow=none;endFill=0;" edge="1" parent="1" source="X-tyRFL7NIDg11g9ua8T-1" target="X-tyRFL7NIDg11g9ua8T-36">
          <mxGeometry relative="1" as="geometry" />
        </mxCell>
        <mxCell id="X-tyRFL7NIDg11g9ua8T-60" style="edgeStyle=orthogonalEdgeStyle;rounded=0;orthogonalLoop=1;jettySize=auto;html=1;entryX=0;entryY=0.5;entryDx=0;entryDy=0;endArrow=none;endFill=0;" edge="1" parent="1" source="X-tyRFL7NIDg11g9ua8T-1" target="X-tyRFL7NIDg11g9ua8T-38">
          <mxGeometry relative="1" as="geometry">
            <Array as="points">
              <mxPoint x="410" y="200" />
              <mxPoint x="410" y="260" />
            </Array>
          </mxGeometry>
        </mxCell>
        <mxCell id="X-tyRFL7NIDg11g9ua8T-1" value="Farmaceuticos" style="shape=umlActor;verticalLabelPosition=bottom;verticalAlign=top;html=1;outlineConnect=0;" vertex="1" parent="1">
          <mxGeometry x="270" y="170" width="30" height="60" as="geometry" />
        </mxCell>
        <mxCell id="X-tyRFL7NIDg11g9ua8T-61" style="edgeStyle=orthogonalEdgeStyle;rounded=0;orthogonalLoop=1;jettySize=auto;html=1;entryX=0;entryY=0.5;entryDx=0;entryDy=0;endArrow=none;endFill=0;" edge="1" parent="1" source="X-tyRFL7NIDg11g9ua8T-8" target="X-tyRFL7NIDg11g9ua8T-40">
          <mxGeometry relative="1" as="geometry">
            <Array as="points">
              <mxPoint x="430" y="340" />
              <mxPoint x="430" y="320" />
            </Array>
          </mxGeometry>
        </mxCell>
        <mxCell id="X-tyRFL7NIDg11g9ua8T-62" style="edgeStyle=orthogonalEdgeStyle;rounded=0;orthogonalLoop=1;jettySize=auto;html=1;entryX=0;entryY=0.5;entryDx=0;entryDy=0;endArrow=none;endFill=0;" edge="1" parent="1" source="X-tyRFL7NIDg11g9ua8T-8" target="X-tyRFL7NIDg11g9ua8T-44">
          <mxGeometry relative="1" as="geometry">
            <Array as="points">
              <mxPoint x="430" y="340" />
              <mxPoint x="430" y="380" />
            </Array>
          </mxGeometry>
        </mxCell>
        <mxCell id="X-tyRFL7NIDg11g9ua8T-8" value="Industria" style="shape=umlActor;verticalLabelPosition=bottom;verticalAlign=top;html=1;outlineConnect=0;" vertex="1" parent="1">
          <mxGeometry x="270" y="310" width="30" height="60" as="geometry" />
        </mxCell>
        <mxCell id="X-tyRFL7NIDg11g9ua8T-57" style="edgeStyle=orthogonalEdgeStyle;rounded=0;orthogonalLoop=1;jettySize=auto;html=1;entryX=0;entryY=0.5;entryDx=0;entryDy=0;endArrow=none;endFill=0;" edge="1" parent="1" source="X-tyRFL7NIDg11g9ua8T-9" target="X-tyRFL7NIDg11g9ua8T-32">
          <mxGeometry relative="1" as="geometry">
            <Array as="points">
              <mxPoint x="370" y="440" />
              <mxPoint x="370" y="90" />
            </Array>
          </mxGeometry>
        </mxCell>
        <mxCell id="X-tyRFL7NIDg11g9ua8T-70" style="edgeStyle=orthogonalEdgeStyle;rounded=0;orthogonalLoop=1;jettySize=auto;html=1;entryX=0;entryY=0.5;entryDx=0;entryDy=0;endArrow=none;endFill=0;" edge="1" parent="1" source="X-tyRFL7NIDg11g9ua8T-9" target="X-tyRFL7NIDg11g9ua8T-30">
          <mxGeometry relative="1" as="geometry" />
        </mxCell>
        <mxCell id="X-tyRFL7NIDg11g9ua8T-9" value="Administrador&lt;br&gt;" style="shape=umlActor;verticalLabelPosition=bottom;verticalAlign=top;html=1;outlineConnect=0;" vertex="1" parent="1">
          <mxGeometry x="270" y="410" width="30" height="60" as="geometry" />
        </mxCell>
        <mxCell id="X-tyRFL7NIDg11g9ua8T-58" style="edgeStyle=orthogonalEdgeStyle;rounded=0;orthogonalLoop=1;jettySize=auto;html=1;entryX=0;entryY=0.5;entryDx=0;entryDy=0;endArrow=none;endFill=0;" edge="1" parent="1" source="X-tyRFL7NIDg11g9ua8T-10" target="X-tyRFL7NIDg11g9ua8T-34">
          <mxGeometry relative="1" as="geometry">
            <Array as="points">
              <mxPoint x="330" y="-90" />
              <mxPoint x="330" y="50" />
              <mxPoint x="490" y="50" />
              <mxPoint x="490" y="140" />
            </Array>
          </mxGeometry>
        </mxCell>
        <mxCell id="X-tyRFL7NIDg11g9ua8T-68" style="edgeStyle=orthogonalEdgeStyle;rounded=0;orthogonalLoop=1;jettySize=auto;html=1;endArrow=none;endFill=0;" edge="1" parent="1" source="X-tyRFL7NIDg11g9ua8T-10" target="X-tyRFL7NIDg11g9ua8T-9">
          <mxGeometry relative="1" as="geometry">
            <Array as="points">
              <mxPoint x="90" y="440" />
            </Array>
          </mxGeometry>
        </mxCell>
        <mxCell id="X-tyRFL7NIDg11g9ua8T-10" value="Utente" style="shape=umlActor;verticalLabelPosition=bottom;verticalAlign=top;html=1;outlineConnect=0;" vertex="1" parent="1">
          <mxGeometry x="90" y="-120" width="30" height="60" as="geometry" />
        </mxCell>
        <mxCell id="X-tyRFL7NIDg11g9ua8T-14" value="" style="ellipse;whiteSpace=wrap;html=1;" vertex="1" parent="1">
          <mxGeometry x="595" y="-50" width="120" height="40" as="geometry" />
        </mxCell>
        <mxCell id="X-tyRFL7NIDg11g9ua8T-65" style="edgeStyle=orthogonalEdgeStyle;rounded=0;orthogonalLoop=1;jettySize=auto;html=1;endArrow=none;endFill=0;exitX=0;exitY=0.5;exitDx=0;exitDy=0;" edge="1" parent="1" source="X-tyRFL7NIDg11g9ua8T-14" target="X-tyRFL7NIDg11g9ua8T-10">
          <mxGeometry relative="1" as="geometry">
            <mxPoint x="624.9999999999998" y="-69.94117647058829" as="sourcePoint" />
          </mxGeometry>
        </mxCell>
        <mxCell id="X-tyRFL7NIDg11g9ua8T-30" value="" style="ellipse;whiteSpace=wrap;html=1;" vertex="1" parent="1">
          <mxGeometry x="595" y="20" width="120" height="40" as="geometry" />
        </mxCell>
        <mxCell id="X-tyRFL7NIDg11g9ua8T-31" value="Registar" style="text;html=1;strokeColor=none;fillColor=none;align=center;verticalAlign=middle;whiteSpace=wrap;rounded=0;" vertex="1" parent="1">
          <mxGeometry x="625" y="25" width="60" height="30" as="geometry" />
        </mxCell>
        <mxCell id="X-tyRFL7NIDg11g9ua8T-32" value="" style="ellipse;whiteSpace=wrap;html=1;" vertex="1" parent="1">
          <mxGeometry x="595" y="70" width="120" height="40" as="geometry" />
        </mxCell>
        <mxCell id="X-tyRFL7NIDg11g9ua8T-33" value="Criar substancia ativa" style="text;html=1;strokeColor=none;fillColor=none;align=center;verticalAlign=middle;whiteSpace=wrap;rounded=0;" vertex="1" parent="1">
          <mxGeometry x="625" y="75" width="60" height="30" as="geometry" />
        </mxCell>
        <mxCell id="X-tyRFL7NIDg11g9ua8T-34" value="" style="ellipse;whiteSpace=wrap;html=1;" vertex="1" parent="1">
          <mxGeometry x="595" y="120" width="120" height="40" as="geometry" />
        </mxCell>
        <mxCell id="X-tyRFL7NIDg11g9ua8T-35" value="Consultar substancias ativas" style="text;html=1;strokeColor=none;fillColor=none;align=center;verticalAlign=middle;whiteSpace=wrap;rounded=0;" vertex="1" parent="1">
          <mxGeometry x="625" y="125" width="60" height="30" as="geometry" />
        </mxCell>
        <mxCell id="X-tyRFL7NIDg11g9ua8T-36" value="" style="ellipse;whiteSpace=wrap;html=1;" vertex="1" parent="1">
          <mxGeometry x="595" y="190" width="120" height="40" as="geometry" />
        </mxCell>
        <mxCell id="X-tyRFL7NIDg11g9ua8T-37" value="Criar iteraçao alimentar" style="text;html=1;strokeColor=none;fillColor=none;align=center;verticalAlign=middle;whiteSpace=wrap;rounded=0;" vertex="1" parent="1">
          <mxGeometry x="625" y="195" width="60" height="30" as="geometry" />
        </mxCell>
        <mxCell id="X-tyRFL7NIDg11g9ua8T-38" value="" style="ellipse;whiteSpace=wrap;html=1;" vertex="1" parent="1">
          <mxGeometry x="595" y="240" width="120" height="40" as="geometry" />
        </mxCell>
        <mxCell id="X-tyRFL7NIDg11g9ua8T-39" value="Consultar interaçoes alimentares" style="text;html=1;strokeColor=none;fillColor=none;align=center;verticalAlign=middle;whiteSpace=wrap;rounded=0;" vertex="1" parent="1">
          <mxGeometry x="625" y="245" width="60" height="30" as="geometry" />
        </mxCell>
        <mxCell id="X-tyRFL7NIDg11g9ua8T-40" value="" style="ellipse;whiteSpace=wrap;html=1;" vertex="1" parent="1">
          <mxGeometry x="595" y="300" width="120" height="40" as="geometry" />
        </mxCell>
        <mxCell id="X-tyRFL7NIDg11g9ua8T-41" value="Adicionar medicamento" style="text;html=1;strokeColor=none;fillColor=none;align=center;verticalAlign=middle;whiteSpace=wrap;rounded=0;" vertex="1" parent="1">
          <mxGeometry x="625" y="305" width="60" height="30" as="geometry" />
        </mxCell>
        <mxCell id="X-tyRFL7NIDg11g9ua8T-44" value="" style="ellipse;whiteSpace=wrap;html=1;" vertex="1" parent="1">
          <mxGeometry x="595" y="360" width="120" height="40" as="geometry" />
        </mxCell>
        <mxCell id="X-tyRFL7NIDg11g9ua8T-45" value="Consultar medicamentos" style="text;html=1;strokeColor=none;fillColor=none;align=center;verticalAlign=middle;whiteSpace=wrap;rounded=0;" vertex="1" parent="1">
          <mxGeometry x="625" y="365" width="60" height="30" as="geometry" />
        </mxCell>
        <mxCell id="X-tyRFL7NIDg11g9ua8T-46" value="" style="ellipse;whiteSpace=wrap;html=1;" vertex="1" parent="1">
          <mxGeometry x="595" y="410" width="120" height="40" as="geometry" />
        </mxCell>
        <mxCell id="X-tyRFL7NIDg11g9ua8T-47" value="Pesquisar intereçoes alimentares" style="text;html=1;strokeColor=none;fillColor=none;align=center;verticalAlign=middle;whiteSpace=wrap;rounded=0;" vertex="1" parent="1">
          <mxGeometry x="625" y="415" width="60" height="30" as="geometry" />
        </mxCell>
        <mxCell id="X-tyRFL7NIDg11g9ua8T-48" value="" style="ellipse;whiteSpace=wrap;html=1;" vertex="1" parent="1">
          <mxGeometry x="595" y="470" width="120" height="40" as="geometry" />
        </mxCell>
        <mxCell id="X-tyRFL7NIDg11g9ua8T-49" value="Pesquisar contato farmacovigilancia" style="text;html=1;strokeColor=none;fillColor=none;align=center;verticalAlign=middle;whiteSpace=wrap;rounded=0;" vertex="1" parent="1">
          <mxGeometry x="625" y="475" width="60" height="30" as="geometry" />
        </mxCell>
        <mxCell id="X-tyRFL7NIDg11g9ua8T-63" style="edgeStyle=orthogonalEdgeStyle;rounded=0;orthogonalLoop=1;jettySize=auto;html=1;entryX=0;entryY=0.5;entryDx=0;entryDy=0;endArrow=none;endFill=0;" edge="1" parent="1" source="X-tyRFL7NIDg11g9ua8T-52" target="X-tyRFL7NIDg11g9ua8T-46">
          <mxGeometry relative="1" as="geometry" />
        </mxCell>
        <mxCell id="X-tyRFL7NIDg11g9ua8T-52" value="Utilizadores" style="shape=umlActor;verticalLabelPosition=bottom;verticalAlign=top;html=1;outlineConnect=0;" vertex="1" parent="1">
          <mxGeometry x="270" y="530" width="30" height="60" as="geometry" />
        </mxCell>
        <mxCell id="X-tyRFL7NIDg11g9ua8T-55" style="edgeStyle=orthogonalEdgeStyle;rounded=0;orthogonalLoop=1;jettySize=auto;html=1;entryX=1;entryY=1;entryDx=0;entryDy=0;entryPerimeter=0;endArrow=none;endFill=0;" edge="1" parent="1" source="X-tyRFL7NIDg11g9ua8T-48" target="X-tyRFL7NIDg11g9ua8T-52">
          <mxGeometry relative="1" as="geometry" />
        </mxCell>
        <mxCell id="X-tyRFL7NIDg11g9ua8T-66" style="edgeStyle=orthogonalEdgeStyle;rounded=0;orthogonalLoop=1;jettySize=auto;html=1;entryX=0.25;entryY=0.1;entryDx=0;entryDy=0;entryPerimeter=0;endArrow=none;endFill=0;" edge="1" parent="1" source="X-tyRFL7NIDg11g9ua8T-10" target="X-tyRFL7NIDg11g9ua8T-1">
          <mxGeometry relative="1" as="geometry">
            <Array as="points">
              <mxPoint x="120" y="176" />
            </Array>
          </mxGeometry>
        </mxCell>
        <mxCell id="X-tyRFL7NIDg11g9ua8T-67" style="edgeStyle=orthogonalEdgeStyle;rounded=0;orthogonalLoop=1;jettySize=auto;html=1;entryX=0;entryY=1;entryDx=0;entryDy=0;entryPerimeter=0;endArrow=none;endFill=0;" edge="1" parent="1" source="X-tyRFL7NIDg11g9ua8T-10" target="X-tyRFL7NIDg11g9ua8T-8">
          <mxGeometry relative="1" as="geometry">
            <Array as="points">
              <mxPoint x="30" y="-90" />
              <mxPoint x="30" y="390" />
              <mxPoint x="270" y="390" />
            </Array>
          </mxGeometry>
        </mxCell>
        <mxCell id="X-tyRFL7NIDg11g9ua8T-69" value="Iniciar Sessão" style="text;html=1;strokeColor=none;fillColor=none;align=center;verticalAlign=middle;whiteSpace=wrap;rounded=0;" vertex="1" parent="1">
          <mxGeometry x="625" y="-45" width="60" height="30" as="geometry" />
        </mxCell>
        <mxCell id="X-tyRFL7NIDg11g9ua8T-72" value="FarmaCovigilancia" style="text;html=1;strokeColor=none;fillColor=none;align=center;verticalAlign=middle;whiteSpace=wrap;rounded=0;" vertex="1" parent="1">
          <mxGeometry x="1010" y="30" width="60" height="30" as="geometry" />
        </mxCell>
        <mxCell id="X-tyRFL7NIDg11g9ua8T-73" value="&amp;lt;&amp;lt; actor &amp;gt;&amp;gt;" style="text;html=1;strokeColor=none;fillColor=none;align=center;verticalAlign=middle;whiteSpace=wrap;rounded=0;" vertex="1" parent="1">
          <mxGeometry x="1000" y="10" width="80" height="30" as="geometry" />
        </mxCell>
        <mxCell id="X-tyRFL7NIDg11g9ua8T-76" value="" style="endArrow=none;dashed=1;html=1;dashPattern=1 3;strokeWidth=2;rounded=0;entryX=1;entryY=0.5;entryDx=0;entryDy=0;exitX=1;exitY=0.5;exitDx=0;exitDy=0;" edge="1" parent="1" source="X-tyRFL7NIDg11g9ua8T-34" target="X-tyRFL7NIDg11g9ua8T-32">
          <mxGeometry width="50" height="50" relative="1" as="geometry">
            <mxPoint x="800" y="250" as="sourcePoint" />
            <mxPoint x="850" y="200" as="targetPoint" />
          </mxGeometry>
        </mxCell>
        <mxCell id="X-tyRFL7NIDg11g9ua8T-77" value="&amp;lt;&amp;lt; extends &amp;gt;&amp;gt;" style="text;html=1;strokeColor=none;fillColor=none;align=center;verticalAlign=middle;whiteSpace=wrap;rounded=0;" vertex="1" parent="1">
          <mxGeometry x="715" y="95" width="80" height="30" as="geometry" />
        </mxCell>
      </root>
    </mxGraphModel>
  </diagram>
</mxfile>
